HIERARCHY
ROOT joint_Root
{
  OFFSET 0 0 0
  CHANNELS 6 Xposition Yposition Zposition Zrotation Xrotation Yrotation
  JOINT Hips
  {
    OFFSET 0.847027 93.984 -452.225
    CHANNELS 6 Xposition Yposition Zposition Zrotation Xrotation Yrotation
    JOINT Spine
    {
      OFFSET 15.7357 0 0
      CHANNELS 6 Xposition Yposition Zposition Zrotation Xrotation Yrotation
      JOINT Chest
      {
        OFFSET 8.98455 -0.406207 0
        CHANNELS 6 Xposition Yposition Zposition Zrotation Xrotation Yrotation
        JOINT Neck
        {
          OFFSET 16.3773 0 0
          CHANNELS 6 Xposition Yposition Zposition Zrotation Xrotation Yrotation
          JOINT Head
          {
            OFFSET 6.45672 0 0
            CHANNELS 6 Xposition Yposition Zposition Zrotation Xrotation Yrotation
            End Site
            {
              OFFSET 0 0 0
            }
          }
        }
        JOINT Shoulder_L
        {
          OFFSET 12.9942 -0.242716 4.98039
          CHANNELS 6 Xposition Yposition Zposition Zrotation Xrotation Yrotation
          JOINT UpperArm_L
          {
            OFFSET 5.34809 0 0
            CHANNELS 6 Xposition Yposition Zposition Zrotation Xrotation Yrotation
            JOINT LowerArm_L
            {
              OFFSET 24.3286 1.87007e-05 0
              CHANNELS 6 Xposition Yposition Zposition Zrotation Xrotation Yrotation
              JOINT Hand_L
              {
                OFFSET 22.2916 0 0
                CHANNELS 6 Xposition Yposition Zposition Zrotation Xrotation Yrotation
                End Site
                {
                  OFFSET 0 0 0
                }
              }
            }
          }
        }
        JOINT Shoulder_R
        {
          OFFSET 12.9945 -0.242716 -4.98039
          CHANNELS 6 Xposition Yposition Zposition Zrotation Xrotation Yrotation
          JOINT UpperArm_R
          {
            OFFSET -5.34813 0 0
            CHANNELS 6 Xposition Yposition Zposition Zrotation Xrotation Yrotation
            JOINT LowerArm_R
            {
              OFFSET -24.3289 0.000322201 0
              CHANNELS 6 Xposition Yposition Zposition Zrotation Xrotation Yrotation
              JOINT Hand_R
              {
                OFFSET -22.2915 -0.000108084 0
                CHANNELS 6 Xposition Yposition Zposition Zrotation Xrotation Yrotation
                End Site
                {
                  OFFSET 0 0 0
                }
              }
            }
          }
        }
      }
    }
    JOINT UpperLeg_L
    {
      OFFSET -2.19248 -6.46944 0
      CHANNELS 6 Xposition Yposition Zposition Zrotation Xrotation Yrotation
      JOINT LowerLeg_L
      {
        OFFSET 39.0811 0 -1.23785e-05
        CHANNELS 6 Xposition Yposition Zposition Zrotation Xrotation Yrotation
        JOINT Foot_L
        {
          OFFSET 40.9854 0 -1.26872e-05
          CHANNELS 6 Xposition Yposition Zposition Zrotation Xrotation Yrotation
          JOINT Toes_L
          {
            OFFSET 11.7543 0 0
            CHANNELS 6 Xposition Yposition Zposition Zrotation Xrotation Yrotation
            End Site
            {
              OFFSET 0 0 0
            }
          }
        }
      }
    }
    JOINT UpperLeg_R
    {
      OFFSET -2.19251 6.46944 0
      CHANNELS 6 Xposition Yposition Zposition Zrotation Xrotation Yrotation
      JOINT LowerLeg_R
      {
        OFFSET -39.0811 -0.00228153 -0.0401928
        CHANNELS 6 Xposition Yposition Zposition Zrotation Xrotation Yrotation
        JOINT Foot_R
        {
          OFFSET -40.9854 0 0
          CHANNELS 6 Xposition Yposition Zposition Zrotation Xrotation Yrotation
          JOINT Toes_R
          {
            OFFSET -11.7543 0 0
            CHANNELS 6 Xposition Yposition Zposition Zrotation Xrotation Yrotation
            End Site
            {
              OFFSET 0 0 0
            }
          }
        }
      }
    }
  }
}
MOTION
Frames:	4
Frame Time:	0.0333333
0 0 0 0 0 -0 -20.2604 83.54 8.13102 105.24 33.906 -19.8545 15.7357 5.1072e-06 -5.51765e-07 94.8831 77.9868 -92.2138 8.98455 -0.406207 -4.3199e-07 16.1349 2.20878 5.03196 16.3773 -1.3905e-06 -6.99897e-07 2.72911 -20.53 7.42272 6.45672 -1.25837e-06 -1.02172e-07 -9.96268 -28.8785 1.56383 12.9942 -0.242716 4.98039 -91.4415 5.22341 -89.5488 5.34809 -7.22636e-06 -6.2814e-07 -55.0678 15.8759 -11.4727 24.3286 1.87007e-05 4.90208e-06 -6.97877 -8.84374 -38.5272 22.2916 -9.88446e-07 4.63217e-06 14.8829 5.63838 -13.9918 12.9945 -0.242716 -4.98039 89.903 2.56169 -102.83 -5.34813 -1.25947e-06 -3.79883e-06 -37.5 -52.6212 -44.3969 -24.3289 0.000322201 -8.65921e-06 -47.1459 -46.2541 -56.1676 -22.2915 -0.000108084 -4.47941e-06 5.41549 5.40969 -3.25512 -2.19248 -6.46944 -1.22534e-07 -177.379 -17.2827 -36.2755 39.0811 -6.73843e-06 -1.23785e-05 0.317318 -0.382597 39.4417 40.9854 -6.48686e-06 -1.26872e-05 -14.4842 19.4268 -58.6318 11.7543 -2.30145e-07 3.05095e-06 0.0790691 -0.12722 -18.8284 -2.19251 6.46944 -1.45247e-06 170.104 28.0159 126.918 -39.0811 -0.00228153 -0.0401928 0.525425 -0.335462 58.302 -40.9854 7.72618e-06 5.99936e-06 -2.16325 -2.31102 -66.5839 -11.7543 -5.6619e-06 -5.58687e-06 -0.506929 -0.204407 -16.3149 
0 0 0 0 0 -0 -20.3608 83.5165 8.23094 105.36 33.9415 -19.9141 15.7357 5.1072e-06 -5.51765e-07 94.9279 77.971 -92.2323 8.98455 -0.406207 -4.3199e-07 16.164 2.23247 5.08083 16.3773 -1.3905e-06 -6.99897e-07 2.71396 -20.5226 7.39631 6.45672 -1.25837e-06 -1.02172e-07 -10.0514 -28.8952 1.51609 12.9942 -0.242716 4.98039 -91.4572 5.26298 -89.5006 5.34809 -7.22636e-06 -6.2814e-07 -55.1056 15.8628 -11.4558 24.3286 1.87007e-05 4.90208e-06 -6.98605 -8.83524 -38.583 22.2916 -9.88446e-07 4.63217e-06 14.81 5.63665 -13.8513 12.9945 -0.242716 -4.98039 89.9019 2.53961 -102.787 -5.34813 -1.25947e-06 -3.79883e-06 -37.6232 -52.7927 -44.5554 -24.3289 0.000322201 -8.65921e-06 -47.1463 -46.1886 -56.1977 -22.2915 -0.000108084 -4.47941e-06 5.46803 5.40901 -3.23229 -2.19248 -6.46944 -1.22534e-07 -177.341 -17.1915 -36.1787 39.0811 -6.73843e-06 -1.23785e-05 0.314962 -0.381655 39.3084 40.9854 -6.48686e-06 -1.26872e-05 -14.6051 19.3815 -58.5745 11.7543 -2.30145e-07 3.05095e-06 0.0782473 -0.125818 -18.804 -2.19251 6.46944 -1.45247e-06 170.109 28.0205 126.868 -39.0811 -0.00228153 -0.0401928 0.539251 -0.341665 58.4762 -40.9854 7.72618e-06 5.99936e-06 -1.99915 -2.354 -66.7334 -11.7543 -5.6619e-06 -5.58687e-06 -0.552217 -0.271467 -16.267 
0 0 0 0 0 -0 -20.462 83.4827 8.32828 105.497 33.9761 -20.0272 15.7357 5.1072e-06 -5.51765e-07 94.9253 77.974 -92.2074 8.98455 -0.406207 -4.3199e-07 16.1576 2.23239 5.12582 16.3773 -1.3905e-06 -6.99897e-07 2.66292 -20.5582 7.38547 6.45672 -1.25837e-06 -1.02172e-07 -10.0252 -28.9217 1.48055 12.9942 -0.242716 4.98039 -91.4688 5.3002 -89.4863 5.34809 -7.22636e-06 -6.2814e-07 -55.1145 15.8777 -11.3845 24.3286 1.87007e-05 4.90208e-06 -7.07141 -8.91338 -38.6822 22.2916 -9.88446e-07 4.63217e-06 14.8731 5.63594 -13.7958 12.9945 -0.242716 -4.98039 89.9008 2.55436 -102.774 -5.34813 -1.25947e-06 -3.79883e-06 -37.8538 -53.0107 -44.7998 -24.3289 0.000322201 -8.65921e-06 -47.0621 -46.0638 -56.1749 -22.2915 -0.000108084 -4.47941e-06 5.38471 5.40927 -3.24206 -2.19248 -6.46944 -1.22534e-07 -177.338 -17.1226 -36.152 39.0811 -6.73843e-06 -1.23785e-05 0.313738 -0.381423 39.1942 40.9854 -6.48686e-06 -1.26872e-05 -14.6958 19.3792 -58.4785 11.7543 -2.30145e-07 3.05095e-06 0.0786174 -0.126459 -18.815 -2.19251 6.46944 -1.45247e-06 170.115 28.0834 126.761 -39.0811 -0.00228153 -0.0401928 0.52838 -0.333382 58.6561 -40.9854 7.72618e-06 5.99936e-06 -1.99284 -2.36455 -66.8787 -11.7543 -5.6619e-06 -5.58687e-06 -0.520289 -0.220576 -16.3025 
0 0 0 0 0 -0 -20.5703 83.4554 8.42788 105.638 34.0427 -20.1032 15.7357 5.1072e-06 -5.51765e-07 94.9585 77.9606 -92.2033 8.98455 -0.406207 -4.3199e-07 16.1823 2.25156 5.19725 16.3773 -1.3905e-06 -6.99897e-07 2.6774 -20.5735 7.36774 6.45672 -1.25837e-06 -1.02172e-07 -10.08 -28.9549 1.47291 12.9942 -0.242716 4.98039 -91.475 5.32061 -89.4812 5.34809 -7.22636e-06 -6.2814e-07 -55.0858 15.8984 -11.4291 24.3286 1.87007e-05 4.90208e-06 -7.04924 -8.89797 -38.6408 22.2916 -9.88446e-07 4.63217e-06 14.7695 5.637 -13.8798 12.9945 -0.242716 -4.98039 89.8977 2.55996 -102.711 -5.34813 -1.25947e-06 -3.79883e-06 -38.0357 -53.2226 -45.0154 -24.3289 0.000322201 -8.65921e-06 -47.2635 -46.0283 -56.3766 -22.2915 -0.000108084 -4.47941e-06 5.50894 5.41231 -3.34238 -2.19248 -6.46944 -1.22534e-07 -177.319 -17.059 -36.0731 39.0811 -6.73843e-06 -1.23785e-05 0.31188 -0.381075 39.0659 40.9854 -6.48686e-06 -1.26872e-05 -14.8487 19.3979 -58.3921 11.7543 -2.30145e-07 3.05095e-06 0.078014 -0.125447 -18.7976 -2.19251 6.46944 -1.45247e-06 170.121 28.1355 126.704 -39.0811 -0.00228153 -0.0401928 0.538543 -0.337461 58.8426 -40.9854 7.72618e-06 5.99936e-06 -1.84484 -2.44944 -67.0347 -11.7543 -5.6619e-06 -5.58687e-06 -0.562949 -0.280098 -16.2593 
